<?xml version="1.0" standalone="no"?>
<!DOCTYPE svg PUBLIC "-//W3C//DTD SVG 20010904//EN"
 "http://www.w3.org/TR/2001/REC-SVG-20010904/DTD/svg10.dtd">
<svg version="1.0" xmlns="http://www.w3.org/2000/svg"
 width="700.000000pt" height="700.000000pt" viewBox="0 0 700.000000 700.000000"
 preserveAspectRatio="xMidYMid meet">
<metadata>
Created by potrace 1.14, written by Peter Selinger 2001-2017
</metadata>
<g transform="translate(0.000000,700.000000) scale(0.100000,-0.100000)"
fill="#000000" stroke="none">
<path d="M2 5303 c0 -970 4 -1630 9 -1540 18 368 73 700 175 1054 119 417 317
824 541 1111 l64 82 875 0 c700 0 874 -3 874 -13 0 -7 -41 -53 -91 -102 -487
-482 -831 -1054 -978 -1627 -72 -279 -96 -506 -88 -832 8 -340 50 -585 152
-891 162 -485 461 -952 914 -1427 56 -58 101 -111 101 -117 0 -8 -242 -11
-880 -11 l-879 0 -71 83 c-410 476 -667 1247 -709 2122 -5 89 -9 -588 -9
-1517 l-2 -1678 3500 0 3500 0 -1 1188 c-1 667 -5 1134 -10 1067 -25 -395
-151 -764 -392 -1145 l-72 -115 -788 -3 c-433 -1 -787 0 -787 3 0 3 42 61 93
129 235 317 382 617 444 906 24 115 25 379 0 502 -35 177 -108 365 -340 878
-174 386 -233 562 -278 835 -32 188 -32 451 0 630 67 381 218 738 448 1058
l56 77 744 0 c432 0 743 -4 743 -9 0 -5 -24 -40 -54 -77 -82 -106 -197 -277
-266 -397 -244 -427 -292 -853 -144 -1286 44 -127 153 -385 259 -612 222 -473
312 -755 334 -1040 5 -57 9 912 10 2154 l1 2257 -3500 0 -3500 0 2 -1697z
m4608 696 c0 -6 -22 -39 -49 -73 -113 -144 -250 -355 -321 -496 -200 -399
-229 -795 -88 -1198 54 -154 123 -317 253 -597 121 -262 222 -509 259 -639 86
-295 105 -586 60 -911 -48 -344 -170 -656 -390 -997 l-63 -98 -781 0 c-509 0
-780 3 -780 10 0 5 39 62 86 126 220 295 362 575 430 846 20 80 27 138 31 259
11 314 -32 457 -347 1154 -133 294 -176 405 -226 577 -134 467 -114 905 63
1373 79 210 204 434 368 661 8 12 133 14 752 14 537 0 743 -3 743 -11z"/>
</g>
</svg>
