<?xml version="1.0" standalone="no"?>
<!DOCTYPE svg PUBLIC "-//W3C//DTD SVG 20010904//EN"
 "http://www.w3.org/TR/2001/REC-SVG-20010904/DTD/svg10.dtd">
<svg version="1.0" xmlns="http://www.w3.org/2000/svg"
 width="700.000000pt" height="700.000000pt" viewBox="0 0 700.000000 700.000000"
 preserveAspectRatio="xMidYMid meet">
<metadata>
Created by potrace 1.14, written by Peter Selinger 2001-2017
</metadata>
<g transform="translate(0.000000,700.000000) scale(0.100000,-0.100000)"
fill="#000000" stroke="none">
<path d="M716 6011 c-247 -332 -437 -756 -564 -1256 -253 -991 -187 -2226 165
-3089 99 -245 269 -534 412 -704 l62 -72 879 0 c785 0 880 2 880 15 0 9 -52
73 -116 143 -697 762 -1024 1503 -1051 2382 -28 917 327 1778 1041 2527 64 66
116 128 116 137 0 15 -81 16 -875 16 l-875 0 -74 -99z"/>
<path d="M3064 6022 c-331 -470 -513 -1094 -465 -1592 32 -321 100 -569 258
-935 36 -82 95 -217 130 -300 144 -331 210 -515 245 -679 29 -136 31 -407 5
-541 -58 -290 -215 -621 -449 -947 -44 -62 -83 -119 -85 -125 -4 -10 156 -13
781 -13 l787 0 60 93 c94 144 239 445 293 606 82 248 114 431 123 707 14 445
-49 689 -351 1371 -265 598 -314 759 -323 1058 -4 153 -2 198 15 301 54 315
213 645 483 1003 27 35 46 67 43 72 -3 5 -334 9 -747 9 l-742 0 -61 -88z"/>
<path d="M5283 5978 c-211 -318 -357 -687 -420 -1063 -25 -152 -25 -475 1
-630 49 -300 115 -507 296 -915 200 -453 281 -671 321 -860 32 -151 32 -401 0
-550 -41 -193 -115 -386 -229 -595 -51 -93 -195 -315 -258 -397 -24 -31 -44
-61 -44 -67 0 -8 231 -11 785 -11 l785 0 47 73 c180 280 318 603 376 882 42
201 51 298 51 535 0 190 -3 245 -23 355 -44 251 -123 476 -325 928 -177 396
-267 637 -301 806 -36 177 -36 420 -1 606 52 270 217 604 465 940 28 38 51 75
51 82 0 10 -149 13 -744 13 l-744 0 -89 -132z"/>
</g>
</svg>
